<svg xmlns="http://www.w3.org/2000/svg" xmlns:xlink="http://www.w3.org/1999/xlink" width="500" zoomAndPan="magnify" viewBox="0 0 375 374.999991" height="500" preserveAspectRatio="xMidYMid meet" version="1.0"><defs><clipPath id="ac01f2266c"><path d="M 31.464844 31.464844 L 329 31.464844 L 329 329 L 31.464844 329 Z M 31.464844 31.464844 " clip-rule="nonzero"/></clipPath><clipPath id="29ec424a74"><path d="M 31.464844 31.464844 L 329 31.464844 L 329 329 L 31.464844 329 Z M 31.464844 31.464844 " clip-rule="nonzero"/></clipPath></defs><g clip-path="url(#ac01f2266c)"><path fill="#ffffff" d="M 285.113281 74.890625 C 256.800781 46.566406 219.890625 32.175781 182.796875 31.464844 C 204.730469 36.667969 225.558594 47.675781 242.660156 64.773438 C 291.800781 113.890625 291.777344 193.554688 242.660156 242.671875 C 193.542969 291.800781 113.882812 291.800781 64.761719 242.683594 C 47.675781 225.570312 36.667969 204.742188 31.464844 182.820312 C 32.164062 219.914062 46.554688 256.820312 74.867188 285.125 C 132.9375 343.167969 227.054688 343.167969 285.113281 285.125 C 343.167969 227.054688 343.167969 132.9375 285.113281 74.890625 Z M 285.113281 74.890625 " fill-opacity="1" fill-rule="nonzero"/></g><path fill="#ffffff" d="M 165.820312 78.378906 L 158.324219 120.898438 L 192.410156 147.382812 L 149.683594 153.386719 L 135.027344 194 L 116.097656 155.191406 L 72.949219 153.820312 L 104.003906 123.824219 L 91.992188 82.367188 L 130.101562 102.644531 Z M 165.820312 78.378906 " fill-opacity="1" fill-rule="nonzero"/><g clip-path="url(#29ec424a74)"><path fill="#ffffff" d="M 285.113281 74.890625 C 256.800781 46.566406 219.890625 32.175781 182.796875 31.464844 C 204.730469 36.667969 225.558594 47.675781 242.660156 64.773438 C 291.800781 113.890625 291.777344 193.554688 242.660156 242.671875 C 193.542969 291.800781 113.882812 291.800781 64.761719 242.683594 C 47.675781 225.570312 36.667969 204.742188 31.464844 182.820312 C 32.164062 219.914062 46.554688 256.820312 74.867188 285.125 C 132.9375 343.167969 227.054688 343.167969 285.113281 285.125 C 343.167969 227.054688 343.167969 132.9375 285.113281 74.890625 Z M 285.113281 74.890625 " fill-opacity="1" fill-rule="nonzero"/></g><path fill="#ffffff" d="M 165.820312 78.378906 L 158.324219 120.898438 L 192.410156 147.382812 L 149.683594 153.386719 L 135.027344 194 L 116.097656 155.191406 L 72.949219 153.820312 L 104.003906 123.824219 L 91.992188 82.367188 L 130.101562 102.644531 Z M 165.820312 78.378906 " fill-opacity="1" fill-rule="nonzero"/></svg>