<!-- icon666.com - MILLIONS vector ICONS FREE --><svg version="1.1" id="Capa_1" xmlns="http://www.w3.org/2000/svg" xmlns:xlink="http://www.w3.org/1999/xlink" x="0px" y="0px" viewBox="0 0 494.729 494.729" style="enable-background:new 0 0 494.729 494.729;" xml:space="preserve"><g><g><path d="M374.377,230.396c-3.182-2.753-7.686-3.377-11.497-1.594c-14.902,6.947-31.132,10.586-47.573,10.667 c-61.972-0.42-111.87-50.999-111.45-112.972c0.305-44.917,27.365-85.325,68.783-102.708c4.115-2.133,6.232-6.807,5.12-11.307 c-1.147-5.159-5.601-8.915-10.88-9.173h-3.2C182.502,3.17,116.582,68.866,116.444,150.045s65.558,147.098,146.737,147.236 c43.231,0.073,84.302-18.888,112.286-51.84C379.32,240.985,378.833,234.249,374.377,230.396z M152.472,210.057 c-33.015-61.04-10.296-137.287,50.744-170.301c6.249-3.38,12.774-6.224,19.504-8.501c-26.073,25.126-40.786,59.79-40.747,96 l-0.427,0.213c0.369,74.108,60.745,133.886,134.853,133.517c2.126-0.011,4.251-0.072,6.373-0.183 C261.733,293.816,185.487,271.097,152.472,210.057z" fill="#000000" style="fill: rgb(255, 255, 255);"></path></g></g><g><g><path d="M363.52,86.081c-1.244-3.837-4.546-6.643-8.533-7.253l-30.933-4.693l-13.867-27.947c-1.795-3.663-5.521-5.982-9.6-5.973 c-4.079-0.008-7.805,2.31-9.6,5.973l-14.08,27.947l-31.147,4.693c-5.814,0.949-9.758,6.432-8.809,12.246 c0.365,2.237,1.433,4.299,3.049,5.888l21.333,21.333l-5.12,31.147c-0.935,5.816,3.022,11.29,8.838,12.225 c2.309,0.371,4.675-0.026,6.735-1.132l27.733-14.72l28.587,16c5.191,2.785,11.657,0.833,14.442-4.358 c1.105-2.06,1.503-4.427,1.132-6.735l-5.333-31.573l21.333-21.333C363.323,95.117,364.863,90.411,363.52,86.081z M319.573,107.414 c-2.467,2.454-3.582,5.958-2.987,9.387l2.56,15.36l-13.44-7.253c-3.134-1.669-6.893-1.669-10.027,0l-13.653,7.253l2.56-15.36 c0.595-3.429-0.52-6.932-2.987-9.387l-11.307-9.6l15.36-2.347c3.408-0.531,6.348-2.677,7.893-5.76l7.04-13.867l6.827,13.867 c1.545,3.083,4.486,5.229,7.893,5.76l15.147,2.347L319.573,107.414z" fill="#000000" style="fill: rgb(255, 255, 255);"></path></g></g><g><g><path d="M493.867,351.681c-2.214-10.692-9.44-19.664-19.413-24.107c-13.07-5.128-27.848-3.281-39.253,4.907 c-20.13,10.731-40.939,20.138-62.293,28.16c0.502-7.494-1.364-14.957-5.333-21.333c-8.415-12.059-23.066-18.136-37.547-15.573 c-46.32,3.787-92.946-0.472-137.813-12.587c-33.36-7.661-68.141-6.485-100.907,3.413c-0.345-9.764-8.363-17.499-18.133-17.493 H10.667C4.776,297.068,0,301.843,0,307.734v170.667c0,5.891,4.776,10.667,10.667,10.667h62.507c9.193,0.053,16.935-6.86,17.92-16 c14.293,1.28,34.987,3.413,58.24,6.187c61.013,6.613,111.147,11.947,138.027,11.947c4.475,0.293,8.965,0.293,13.44,0 c27.947-4.267,88.32-42.667,142.72-78.08l22.827-14.72C488.747,385.388,497.707,370.028,493.867,351.681z M70.187,467.948H69.12 H21.333V318.614h48.853V467.948z M455.68,379.415c-4.693,2.773-13.013,8.107-23.68,15.147 c-35.2,23.253-108.8,70.827-134.187,74.88c-48.824-0.822-97.553-4.598-145.92-11.307c-24.107-2.56-45.653-5.12-60.373-6.187 V337.174c30.729-10.026,63.58-11.647,95.147-4.693c47.594,12.326,96.955,16.368,145.92,11.947 c6.391-1.626,13.143,0.625,17.28,5.76c2.958,6.574,2.397,14.197-1.493,20.267c-2.987,2.773-13.867,10.027-48.853,12.587 c-57.813,4.267-66.347,6.613-70.4,19.2c-1.764,5.373,1.163,11.159,6.536,12.923c0.096,0.032,0.193,0.062,0.291,0.091h3.2 c3.83-0.073,7.363-2.08,9.387-5.333c17.372-3.462,34.992-5.531,52.693-6.187c20.58,0.025,40.808-5.345,58.667-15.573 c29.586-10.706,58.446-23.319,86.4-37.76c5.588-4.456,13.037-5.818,19.84-3.627c3.439,1.516,6.021,4.489,7.04,8.107 C474.027,359.788,475.733,367.681,455.68,379.415z" fill="#000000" style="fill: rgb(255, 255, 255);"></path></g></g></svg>